<svg xmlns="http://www.w3.org/2000/svg" viewBox="0 0 512 512">
  <defs>
    <linearGradient id="bg" x1="0%" y1="0%" x2="100%" y2="100%">
      <stop offset="0%" style="stop-color:#10b981"/>
      <stop offset="100%" style="stop-color:#059669"/>
    </linearGradient>
  </defs>
  <rect width="512" height="512" rx="96" fill="url(#bg)"/>
  <g fill="white">
    <!-- Shopping cart -->
    <path d="M160 384c-17.7 0-32 14.3-32 32s14.3 32 32 32 32-14.3 32-32-14.3-32-32-32zm192 0c-17.7 0-32 14.3-32 32s14.3 32 32 32 32-14.3 32-32-14.3-32-32-32z"/>
    <path d="M96 96h32l17.6 88H384l32-128H128L96 96z" opacity="0.9"/>
    <path d="M145.6 184l22.4 112h176l32-112H145.6z" opacity="0.8"/>
    <!-- Checkmark -->
    <path d="M224 280l-40-40-20 20 60 60 100-100-20-20z" fill="#0f172a" opacity="0.6"/>
  </g>
</svg>

